<svg xmlns="http://www.w3.org/2000/svg" width="320" height="220" viewBox="0 0 320 220">
  <g id="_404" data-name="404" transform="translate(-665 -286)">
    <g id="_404_未找到访问页面" data-name="404_未找到访问页面" transform="translate(624 246)">
      <path id="路径_1" data-name="路径 1" d="M57.463,169.184a24.363,24.363,0,0,1-5.843-7.11,36.747,36.747,0,0,1-3.62-15.7c0-36.68,57.86-66.96,132.69-71.46M297.606,91.128c33.29,13.22,54.46,33.06,54.46,55.25,0,10.3-4.57,20.1-12.79,28.97M196.192,74.356c1.28-.01,2.56-.02,3.84-.02a296.067,296.067,0,0,1,68.67,7.75" fill="none" stroke="#31333a" stroke-linecap="round" stroke-width="2.126"/>
      <path id="路径_2" data-name="路径 2" d="M315.532,118.444c12.36,7.6,21.59,16.4,26.77,25.97M201.24,110.279c83.97,0,152.03,32.25,152.03,72.04s-68.06,72.04-152.03,72.04c-35.63,0-68.41-5.81-94.32-15.54-15.97-5.99-29.33-13.47-39.16-21.99-11.83-10.25-18.55-22.01-18.55-34.51,0-22.37,21.52-42.36,55.28-55.57,2.1-.83,4.25-1.62,6.44-2.39" fill="none" stroke="#31333a" stroke-linecap="round" stroke-width="2.126"/>
      <path id="路径_3" data-name="路径 3" d="M126.986,201.18h128.76a11.89,11.89,0,0,0,11.88-11.89V57.88A11.881,11.881,0,0,0,255.746,46H126.986A11.882,11.882,0,0,0,115.1,57.89v131.4a11.881,11.881,0,0,0,11.89,11.89Z" fill="#dcdddd" fill-rule="evenodd"/>
      <path id="路径_4" data-name="路径 4" d="M126.975,46h128.77a11.892,11.892,0,0,1,11.89,11.89v9.24H115.1V57.89A11.884,11.884,0,0,1,126.975,46Z" fill="#999" fill-rule="evenodd"/>
      <path id="路径_5" data-name="路径 5" d="M136.064,99.007a285.878,285.878,0,0,1,40.13-5.79M64.414,131.78c9.47-8.83,22.67-16.61,38.62-22.88" fill="none" stroke="#31333a" stroke-linecap="round" stroke-width="2.126"/>
      <path id="路径_6" data-name="路径 6" d="M62.193,127.069a5,5,0,1,0,5,5A5,5,0,0,0,62.193,127.069Z" fill="#31333a" fill-rule="evenodd"/>
      <path id="路径_7" data-name="路径 7" d="M147.693,73.57a5,5,0,1,0,5,5A5,5,0,0,0,147.693,73.57Z" fill="#fff" fill-rule="evenodd"/>
      <path id="路径_8" data-name="路径 8" d="M147.693,73.57a5,5,0,1,0,5,5A5,5,0,0,0,147.693,73.57Z" fill="none" stroke="#31333a" stroke-width="2.126"/>
      <path id="路径_9" data-name="路径 9" d="M89.926,158.793l6.93,12H83Z" fill="#5b70e8" fill-rule="evenodd"/>
      <path id="路径_10" data-name="路径 10" d="M96.856,170.793l-6.93-12-6.93,12Z" fill="none" stroke="#31333a" stroke-width="1.4"/>
      <path id="路径_11" data-name="路径 11" d="M259.143,237.1c-15.48,2.52-41.5,4.94-58.78,4.94a341.525,341.525,0,0,1-55.7-4.94m-32-8.35c-2.15-.73-4.25-1.48-6.32-2.25-.42-.16-.84-.32-1.25-.48-15.42-5.9-28.34-13.21-37.91-21.51m265.08-2.418c-8.42,7.24-19.07,13.93-31.48,19.79q-2.625,1.245-5.36,2.43" fill="none" stroke="#31333a" stroke-linecap="round" stroke-width="2.126"/>
      <path id="路径_12" data-name="路径 12" d="M137.509,224.27l-2.07,4.53a.947.947,0,0,0,.05.88l2.56,4.28a.943.943,0,0,1-.92,1.42l-4.95-.57a.94.94,0,0,0-.82.32l-3.28,3.76a.939.939,0,0,1-1.63-.44l-.99-4.88a.945.945,0,0,0-.56-.68l-4.59-1.96a.944.944,0,0,1-.09-1.69l4.34-2.45a.97.97,0,0,0,.48-.74l.44-4.97a.944.944,0,0,1,1.58-.61l3.67,3.37a.95.95,0,0,0,.85.23l4.86-1.12a.946.946,0,0,1,1.07,1.32Z" fill="#fff" fill-rule="evenodd"/>
      <path id="路径_13" data-name="路径 13" d="M135.439,228.8l2.07-4.53a.945.945,0,0,0-1.07-1.32l-4.86,1.12a.95.95,0,0,1-.85-.23l-3.67-3.37a.944.944,0,0,0-1.58.61l-.44,4.97a.97.97,0,0,1-.48.74l-4.34,2.45a.944.944,0,0,0,.09,1.69l4.59,1.96a.945.945,0,0,1,.56.68l.99,4.88a.939.939,0,0,0,1.63.44l3.28-3.76a.941.941,0,0,1,.82-.32l4.95.57a.943.943,0,0,0,.92-1.42l-2.56-4.28a.947.947,0,0,1-.05-.88Z" fill="none" stroke="#31333a" stroke-width="2.126"/>
      <path id="路径_14" data-name="路径 14" d="M335.832,196.284l8.478-1.554-1.554-8.479-8.479,1.555,1.555,8.478Z" fill="#5b70e8" fill-rule="evenodd"/>
      <path id="路径_15" data-name="路径 15" d="M343.99,187.106l-8.475,1.553,1.17,6.384,8.475-1.554Z" fill="none" stroke="#31333a" stroke-width="1.4"/>
      <path id="路径_16" data-name="路径 16" d="M136.863,209.542h128.76a11.89,11.89,0,0,0,11.88-11.89V66.242a11.881,11.881,0,0,0-11.88-11.88H136.863a11.882,11.882,0,0,0-11.89,11.89v131.4a11.881,11.881,0,0,0,11.89,11.89Z" fill="#fff" fill-rule="evenodd"/>
      <path id="路径_17" data-name="路径 17" d="M278.566,55.425H126.036V191.154h152.53Z" transform="translate(-1.063 13.496)" fill="none" stroke="#31333a" stroke-width="2.126"/>
      <path id="路径_18" data-name="路径 18" d="M136.853,54.362h128.77a11.884,11.884,0,0,1,11.88,11.89v9.24H124.973v-9.24A11.884,11.884,0,0,1,136.853,54.362Z" fill="#5b70e8" fill-rule="evenodd"/>
      <path id="路径_19" data-name="路径 19" d="M265.623,54.362H136.853a11.884,11.884,0,0,0-11.88,11.89v9.24H277.5v-9.24A11.884,11.884,0,0,0,265.623,54.362Z" fill="none" stroke="#31333a" stroke-width="2.126"/>
      <path id="路径_20" data-name="路径 20" d="M132.492,64.922a5.695,5.695,0,1,1,5.69,5.7,5.695,5.695,0,0,1-5.69-5.7Zm16.341,0a5.7,5.7,0,1,1,5.69,5.7,5.7,5.7,0,0,1-5.69-5.7Zm16.343,0a5.695,5.695,0,1,1,5.69,5.7,5.695,5.695,0,0,1-5.69-5.7Z" fill="#fff" fill-rule="evenodd"/>
      <path id="路径_21" data-name="路径 21" d="M145.772,162.308H256.7v-6.85H145.772Zm0,10.9H256.7v-6.85H145.772Zm0,10.9h62.4v-6.85h-62.4Z" fill="#c6c6c5" fill-rule="evenodd"/>
      <path id="路径_22" data-name="路径 22" d="M212.883,107.575a.752.752,0,0,1,1.05-.05,23.046,23.046,0,0,1,5.85,26.13,22.788,22.788,0,0,1-18.89,5.98,24.1,24.1,0,0,1-5.57-1.43c-.26-.11-.53-.21-.79-.33a.142.142,0,0,1-.06-.02,23.175,23.175,0,0,1-10.98-10.25c-.04-.06-.06-.12-.1-.18a19.124,19.124,0,0,1-1.79-10.88,18.449,18.449,0,0,1,.93-3.81,29.636,29.636,0,0,0,8.11,2.25,27.519,27.519,0,0,0,16.26-2.56,18.35,18.35,0,0,0,5.94-4.81l.04-.04Z" fill="#fff" fill-rule="evenodd"/>
      <path id="路径_23" data-name="路径 23" d="M213.933,107.525a.752.752,0,0,0-1.05.05l-.04.04a18.35,18.35,0,0,1-5.94,4.81,27.519,27.519,0,0,1-16.26,2.56,29.636,29.636,0,0,1-8.11-2.25,18.451,18.451,0,0,0-.93,3.81,19.124,19.124,0,0,0,1.79,10.88c.04.06.06.12.1.18a23.175,23.175,0,0,0,10.98,10.25.142.142,0,0,0,.06.02c.26.12.53.22.79.33a24.1,24.1,0,0,0,5.57,1.43,22.788,22.788,0,0,0,18.89-5.98,23.046,23.046,0,0,0-5.85-26.13Z" fill="none" stroke="#31333a" stroke-width="0.992"/>
      <path id="路径_24" data-name="路径 24" d="M214.277,108.3a1.3,1.3,0,0,0-1.84.15,18.813,18.813,0,0,1-5.58,4.37,27.488,27.488,0,0,1-16.27,2.56,29.693,29.693,0,0,1-3.36-.64,26.548,26.548,0,0,0-2.9,14.59,22.908,22.908,0,0,1-3.65-15.77c.05-.41.12-.81.19-1.21-.51-.27-1.02-.55-1.5-.84q-.885-.54-1.71-1.14a2.628,2.628,0,0,1-.98-1.42,2.71,2.71,0,0,1,1.85-3.36,27.347,27.347,0,0,1,5.89-1.04,23.389,23.389,0,0,1,31.11-7.45,23.062,23.062,0,0,1,4.11,37.19,23.071,23.071,0,0,0-5.3-25.94.265.265,0,0,0-.06-.05Z" fill="#31333a" fill-rule="evenodd"/>
      <path id="路径_25" data-name="路径 25" d="M212.437,108.453a1.3,1.3,0,0,1,1.84-.15.265.265,0,0,1,.06.05,23.071,23.071,0,0,1,5.3,25.94,23.062,23.062,0,0,0-4.11-37.19,23.389,23.389,0,0,0-31.11,7.45,27.347,27.347,0,0,0-5.89,1.04,2.71,2.71,0,0,0-1.85,3.36,2.628,2.628,0,0,0,.98,1.42q.825.6,1.71,1.14c.48.29.99.57,1.5.84-.07.4-.14.8-.19,1.21a22.908,22.908,0,0,0,3.65,15.77,26.548,26.548,0,0,1,2.9-14.59,29.693,29.693,0,0,0,3.36.64,27.488,27.488,0,0,0,16.27-2.56,18.813,18.813,0,0,0,5.58-4.37Z" fill="none" stroke="#31333a" stroke-width="1"/>
      <path id="路径_27" data-name="路径 27" d="M169.931,103.186l-9.09-.09v.07l-16.32,21.59.49,4.83,15.56.16-.07,7.12,9.08.09.07-7.12,3.96.04.06-6.07-3.95-.04.21-20.58Zm-9.192,9.971-.16-.02-1.01,1.73-7.24,8.72,8.31.08.1-10.51Zm86.357,23.71,9.09.09.07-7.12,3.95.04.07-6.07-3.95-.04.21-20.58-9.09-.09v.07l-16.32,21.59.49,4.83,15.56.16-.08,7.12Zm.248-23.7-.16-.03-1.01,1.73-7.24,8.72,8.3.08.11-10.5Z" fill="#31333a" fill-rule="evenodd"/>
      <path id="路径_28" data-name="路径 28" d="M264.771,220.051a27.032,27.032,0,1,1,13.05-17.04,26.738,26.738,0,0,1-5.61,10.95l16.29,18.45.81-3.28,2.35,1.24-1.08,4.39-7.35,5.5-18.46-20.21Z" fill="#3351e5" fill-rule="evenodd"/>
      <path id="路径_29" data-name="路径 29" d="M244.681,222.741a27.462,27.462,0,0,0,20.09-2.69l18.46,20.21,7.35-5.5,1.08-4.39-2.35-1.24-.81,3.28-16.29-18.45a26.738,26.738,0,0,0,5.61-10.95,27.434,27.434,0,1,0-33.14,19.73Z" fill="none" stroke="#3351e5" stroke-width="0.992"/>
      <path id="路径_30" data-name="路径 30" d="M277.111,200.513a23.547,23.547,0,0,1-4.17,8.66l18.72,21.2-7.34,5.5-18.61-20.37a27.234,27.234,0,0,1-20.26,2.78c-14.19-3.51-23.02-17.16-19.72-30.48s17.47-21.28,31.66-17.77S280.4,187.193,277.111,200.513Z" fill="#5b70e8" fill-rule="evenodd"/>
      <path id="路径_31" data-name="路径 31" d="M272.941,209.173a23.547,23.547,0,0,0,4.17-8.66c3.29-13.32-5.54-26.97-19.72-30.48s-28.37,4.44-31.66,17.77,5.53,26.97,19.72,30.48a27.234,27.234,0,0,0,20.26-2.78l18.61,20.37,7.34-5.5-18.72-21.2Z" fill="none" stroke="#3351e5" stroke-width="0.992"/>
      <path id="路径_32" data-name="路径 32" d="M258.139,169.99c-.06-.01-.11-.03-.16-.04-11.16-2.76-22.31,1.57-28.17,10.03a26.8,26.8,0,0,0-4.66,9.77,27.49,27.49,0,0,0,40.21,30.22l18.46,20.21,7.35-5.5,1.08-4.39-17.21-19.48a26.7,26.7,0,0,0,3.37-7.88,27.261,27.261,0,0,0-20.12-32.9.832.832,0,0,0-.15-.04Z" fill="none" stroke="#31333a" stroke-width="2"/>
      <path id="路径_33" data-name="路径 33" d="M232.624,189.5c-2.44,9.862,4,19.943,14.375,22.51s20.782-3.347,23.222-13.21-4-19.934-14.387-22.5-20.77,3.34-23.21,13.2Z" fill="#fff" fill-rule="evenodd"/>
      <path id="路径_34" data-name="路径 34" d="M235.672,205.485a18.008,18.008,0,0,1-3.237-15.222c2.44-9.863,12.833-15.77,23.21-13.2a19.656,19.656,0,0,1,13.547,11.482,19.9,19.9,0,0,0-11.152-7.294c-10.378-2.567-20.77,3.34-23.21,13.2a17.7,17.7,0,0,0,.842,11.034Z" fill="#e7e7e7" fill-rule="evenodd"/>
      <path id="路径_35" data-name="路径 35" d="M232.624,189.5c-2.44,9.862,4,19.943,14.375,22.51s20.782-3.347,23.222-13.21-4-19.934-14.387-22.5-20.77,3.34-23.21,13.2Z" fill="none" stroke="#31333a" stroke-width="2"/>
      <path id="路径_36" data-name="路径 36" d="M250.3,204.983s-4.05.08-6.64-1.6a6.391,6.391,0,0,1-2.95-3.98" fill="none" stroke="#31333a" stroke-width="2.126"/>
      <path id="路径_37" data-name="路径 37" d="M287.587,249.187l-16.93-18.84c-1.36-1.52-.21-4.8,2.59-7.31l3.38-3.03c2.79-2.52,6.17-3.32,7.54-1.8l16.93,18.84c1.37,1.53.21,4.8-2.59,7.31l-3.38,3.04c-2.79,2.51-6.17,3.31-7.54,1.79Z" fill="#dcdddd" fill-rule="evenodd"/>
      <path id="路径_38" data-name="路径 38" d="M270.657,230.347l16.93,18.84c1.37,1.52,4.75.72,7.54-1.79l3.38-3.04c2.8-2.51,3.96-5.78,2.59-7.31l-16.93-18.84c-1.37-1.52-4.75-.72-7.54,1.8l-3.38,3.03c-2.8,2.51-3.95,5.79-2.59,7.31Z" fill="none" stroke="#31333a" stroke-width="2.126"/>
      <path id="路径_39" data-name="路径 39" d="M298.505,244.141l-3.37,2.956c-2.8,2.458-6.1,2.641-7.457,1.158,0,0,2,1.3,4.815-.56s7.075-6.7,7.075-6.7l1.537-3.977-.01-.01C302.465,238.493,301.3,241.692,298.505,244.141Z" transform="translate(0 0.355)" fill="#0d1d38" fill-rule="evenodd"/>
      <path id="路径_40" data-name="路径 40" d="M284.957,247.828l-16.278-19.262c-1.135-1.465,1.708-3.138,4.045-5.557l.709-.733,18.037,23.366-.49.594C288.652,248.655,286.405,248.524,284.957,247.828Z" transform="translate(2.848 1)" fill="#dcdddd" fill-rule="evenodd"/>
      <path id="路径_41" data-name="路径 41" d="M281.939,220.376c.906-.818,2-1.073,2.442-.586l17.1,19.063c.442.487.066,1.548-.84,2.355s-1.989,1.073-2.431.575l-17.1-19.052c-.442-.487-.066-1.548.829-2.355Z" transform="matrix(0.999, -0.035, 0.035, 0.999, -7.877, 10.307)" fill="#fff" fill-rule="evenodd"/>
      <path id="路径_42" data-name="路径 42" d="M180.431,108.9a3.551,3.551,0,1,0,3.552,3.55,3.551,3.551,0,0,0-3.552-3.55Z" fill="#31333a" fill-rule="evenodd"/>
      <path id="路径_43" data-name="路径 43" d="M194.061,126.161l2-2.154,1.342-1.446m-3.47.129,3.6,3.34m10.6.275,1.809-1.95,1.531-1.65m-3.471.13,3.6,3.34m-30-9.627c-1.479,11.132,7.154,21.47,19.288,23.082s23.157-6.112,24.636-17.245-7.153-21.479-19.276-23.09S183.088,105.406,181.607,116.548Z" fill="none" stroke="#31333a" stroke-width="2.126"/>
    </g>
    <rect id="矩形_2" data-name="矩形 2" width="320" height="220" transform="translate(665 286)" fill="none"/>
  </g>
</svg>
