<svg xmlns="http://www.w3.org/2000/svg" width="267" height="64" viewBox="0 0 267 64">
  <g id="logo" transform="translate(-202 -128)">
    <rect id="矩形_1" data-name="矩形 1" width="64" height="64" rx="8" transform="translate(202 128)" fill="#5b70e8"/>
    <path id="多边形_1" data-name="多边形 1" d="M17.649,1.38a1,1,0,0,1,1.7,0L36.06,28.475A1,1,0,0,1,35.208,30H1.792A1,1,0,0,1,.94,28.475Z" transform="translate(221 145)" fill="#fff"/>
    <path id="多边形_2" data-name="多边形 2" d="M10.147,1.4a1,1,0,0,1,1.707,0L21.07,16.479A1,1,0,0,1,20.217,18H1.783A1,1,0,0,1,.93,16.479Z" transform="translate(233 163) rotate(180)" fill="#fff" opacity="0.7"/>
    <text id="Start_Page" data-name="Start Page" transform="translate(282 177)" fill="#171b39" font-size="40" font-family="Impact" letter-spacing="0.05em"><tspan x="0" y="0">Start Page</tspan></text>
  </g>
</svg>
